<svg id="Layer_1" data-name="Layer 1" xmlns="http://www.w3.org/2000/svg" viewBox="0 0 1024 1024"><defs><style>.cls-1{fill:#f43b93;}.cls-2{fill:#257ec1;}.cls-3{fill:#9f2ee8;}.cls-4{font-size:141.68px;}.cls-29,.cls-4,.cls-5{fill:#fff;}.cls-4,.cls-5{font-family:DKLemonYellowSun, DK Lemon Yellow Sun;}.cls-5{font-size:117.12px;}.cls-6{fill:#f29100;}.cls-10,.cls-14,.cls-33,.cls-7{fill:none;}.cls-8{fill:#d9d9d9;}.cls-9{fill:#eb6608;}.cls-10,.cls-14{stroke:#b1b1b1;}.cls-10,.cls-14,.cls-33{stroke-miterlimit:10;}.cls-10{stroke-width:1.05px;}.cls-11{fill:#e89f3c;}.cls-12{fill:#009ee2;}.cls-13{fill:#2a84ae;}.cls-14{stroke-width:0.92px;}.cls-15{fill:#d10a11;}.cls-16{fill:#ba181c;}.cls-17{fill:#009540;}.cls-18{fill:#037c34;}.cls-19{fill:#467d8c;}.cls-20{fill:#315e6d;}.cls-21{fill:#1d70b7;}.cls-22{fill:#846541;}.cls-23{fill:#e8b2c8;}.cls-24{fill:#98794d;}.cls-25{fill:#b69f7e;}.cls-26{fill:#876844;}.cls-27{fill:#dda6c0;}.cls-28{fill:#1d1d1b;}.cls-30{fill:#ef8130;}.cls-31{fill:#e26b1b;}.cls-32{fill:#f29a57;}.cls-33{stroke:#1d1d1b;stroke-width:1.58px;}.cls-34{fill:#ed863a;}.cls-35{fill:#3c3c3b;}.cls-36{fill:#232323;}.cls-37{fill:#c6601a;}.cls-38{fill:#7b5a3c;}</style></defs><ellipse class="cls-1" cx="382.42" cy="157.62" rx="218.31" ry="131.92"/><ellipse class="cls-2" cx="641.58" cy="161.13" rx="218.31" ry="131.92"/><path class="cls-3" d="M600.72,159.37c-.85,30.48-19.62,54.45-25.3,61.71-23.93,30.55-55.31,41.06-67.27,44.4-11.17-3.54-40-14.37-61.82-43.53-3.95-5.28-22.14-29.63-23.05-59.07-1.36-43.78,35.81-88.55,92.64-109.64C567.79,74.7,601.9,117.05,600.72,159.37Z"/><text class="cls-4" transform="translate(665.12 207.94)">?</text><text class="cls-4" transform="translate(303.22 207.94)">?</text><text class="cls-5" transform="translate(502.46 201.24)">!</text><path class="cls-1" d="M294,228.17c-1.95,5.29-11.35,32.44,2.28,61.54C313,325.42,350,333.32,354,334.1A120.42,120.42,0,0,1,336.25,232"/><path class="cls-2" d="M740.86,228.17c2,5.29,11.36,32.44-2.27,61.54-16.73,35.71-53.73,43.61-57.71,44.39A120.37,120.37,0,0,0,698.64,232"/><path class="cls-6" d="M1021.21,893.82A23.84,23.84,0,0,1,1014,911l-65.28,73.11-1.3,1.44c-.68.76-1.36,1.54-2,2.3a34.53,34.53,0,0,1-24.81,10.47H629.66a1.31,1.31,0,0,1-1.31-1.3v-4a1.31,1.31,0,0,1,1.31-1.31h287c18.35,0,33.43-13.74,35.16-31.31.1-1.12.16-2.24.16-3.38v-2.69c0-19.37-16-35.08-35.72-35.08H629.66a1.31,1.31,0,0,1-1.31-1.3V913.6a1.32,1.32,0,0,1,.87-1.24L748,870a1.35,1.35,0,0,1,.44-.07H997.3a23.88,23.88,0,0,1,23.91,23.9Z"/><path class="cls-7" d="M1016.14,908.52,1014,911"/><path class="cls-8" d="M952,954.27V957c0,1.14-.06,2.26-.16,3.38-1.73,17.57-16.81,31.31-35.16,31.31H634.47V919.19H916.26C936,919.19,952,934.9,952,954.27Z"/><path class="cls-9" d="M1021.21,893.82A23.84,23.84,0,0,1,1014,911l-65.28,73.11-1.3,1.44c-.68.76-1.36,1.54-2,2.3a34.53,34.53,0,0,1-24.81,10.47H630.17a1.81,1.81,0,0,1-1.82-1.81v-3a1.81,1.81,0,0,1,1.82-1.81H916.66c18.35,0,33.43-13.74,35.16-31.31.1-1.12.16-2.24.16-3.38v-2.69a35.26,35.26,0,0,0-28.85-34.43l71.1-49.6a1.82,1.82,0,0,1,1-.32h2a23.88,23.88,0,0,1,23.91,23.9Z"/><path class="cls-10" d="M634.47,934.45H923"/><path class="cls-10" d="M634.47,948.3H923"/><path class="cls-10" d="M634.47,962.13H923"/><path class="cls-10" d="M634.47,976.39H923"/><path class="cls-11" d="M638.78,925.51V926h-.26C638.61,925.81,638.7,925.66,638.78,925.51Z"/><path class="cls-12" d="M636.94,847.33a20.93,20.93,0,0,0,7.55,14.5l62.24,59.41,1.24,1.17,1.95,1.87a30.35,30.35,0,0,0,22.45,7.43l254.52-20.35a1.15,1.15,0,0,0,1.05-1.24l-.28-3.52a1.14,1.14,0,0,0-1.23-1.06L735.27,925.62a30.8,30.8,0,0,1-33-24.93c-.16-1-.29-2-.37-3l-.19-2.35c-1.36-17,11.54-31.82,28.8-33.2l250.81-20.05a1.15,1.15,0,0,0,1-1.24l-.3-3.75a1.15,1.15,0,0,0-.85-1l-106.9-28.77a1.29,1.29,0,0,0-.39,0L656.18,824.74a21,21,0,0,0-19.24,22.59Z"/><path class="cls-7" d="M642.4,859.83l2.09,2"/><path class="cls-8" d="M701.75,895.39l.19,2.35c.08,1,.21,2,.37,3a30.81,30.81,0,0,0,33,24.93l247-19.74-5.07-63.41-246.6,19.72C713.29,863.57,700.39,878.43,701.75,895.39Z"/><path class="cls-13" d="M636.94,847.33a20.93,20.93,0,0,0,7.55,14.5l62.24,59.41,1.24,1.17,1.95,1.87a30.35,30.35,0,0,0,22.45,7.43l254.08-20.32a1.59,1.59,0,0,0,1.46-1.71L987.7,907a1.59,1.59,0,0,0-1.72-1.46l-250.71,20a30.8,30.8,0,0,1-33-24.93c-.16-1-.29-2-.37-3l-.19-2.35a30.94,30.94,0,0,1,22.84-32.15L658.9,824.81a1.55,1.55,0,0,0-.94-.21l-1.78.14a21,21,0,0,0-19.24,22.59Z"/><path class="cls-14" d="M978.21,855.82,725.72,876"/><path class="cls-14" d="M979.18,867.94,726.69,888.13"/><path class="cls-14" d="M980.15,880l-252.5,20.19"/><path class="cls-14" d="M981.15,892.53l-252.5,20.19"/><path class="cls-11" d="M973.82,848.3l0,.4.23,0A4.28,4.28,0,0,1,973.82,848.3Z"/><path class="cls-15" d="M1003.21,778a20.9,20.9,0,0,1-6.07,15.17l-56,65.31L940,859.8c-.58.69-1.16,1.38-1.75,2.06a30.34,30.34,0,0,1-21.6,9.62l-255.28,5.09a1.16,1.16,0,0,1-1.18-1.13l-.07-3.53a1.16,1.16,0,0,1,1.13-1.18l251.91-5a30.81,30.81,0,0,0,30.31-28.09c.07-1,.1-2,.08-3l0-2.35c-.34-17-14.65-30.51-32-30.17l-251.56,5a1.15,1.15,0,0,1-1.17-1.13l-.07-3.76a1.15,1.15,0,0,1,.74-1.1L763,761.89a1.23,1.23,0,0,1,.38-.08l218.44-4.35a21,21,0,0,1,21.4,20.57Z"/><path class="cls-7" d="M999,791l-1.88,2.19"/><path class="cls-8" d="M943.5,832.29l0,2.36c0,1,0,2-.08,3a30.82,30.82,0,0,1-30.31,28.1l-247.69,4.93-1.27-63.6,247.34-4.92C928.85,801.78,943.16,815.29,943.5,832.29Z"/><path class="cls-16" d="M1003.21,778a20.9,20.9,0,0,1-6.07,15.17q-28,32.65-56,65.31L940,859.8l-1.75,2.06a30.34,30.34,0,0,1-21.6,9.62l-254.84,5.08a1.6,1.6,0,0,1-1.63-1.56l0-2.65a1.58,1.58,0,0,1,1.56-1.62l251.47-5a30.81,30.81,0,0,0,30.31-28.09c.07-1,.1-2,.08-3l0-2.35a31,31,0,0,0-25.92-29.72l61.54-44.78a1.62,1.62,0,0,1,.9-.3l1.79,0a21,21,0,0,1,21.4,20.57Z"/><path class="cls-14" d="M664.47,820.44l253.25-5"/><path class="cls-14" d="M664.71,832.6l253.26-5"/><path class="cls-14" d="M665,844.74l253.26-5"/><path class="cls-14" d="M665.2,857.26l253.26-5"/><path class="cls-11" d="M668.1,812.52v.4h-.22C668,812.79,668,812.66,668.1,812.52Z"/><path class="cls-17" d="M598.1,713a23.8,23.8,0,0,0,8.42,16.6L676.72,798l1.39,1.35,2.2,2.15a34.57,34.57,0,0,0,25.49,8.73L995.94,790.1a1.31,1.31,0,0,0,1.22-1.39l-.28-4a1.31,1.31,0,0,0-1.4-1.21L709.17,803.36c-18.3,1.27-34.3-11.38-37.24-28.79-.18-1.11-.32-2.23-.4-3.36l-.18-2.68c-1.34-19.33,13.52-36.11,33.2-37.47l285.91-19.87a1.31,1.31,0,0,0,1.22-1.39l-.3-4.28a1.3,1.3,0,0,0-1-1.17L869,670.31a1.29,1.29,0,0,0-.44,0L620.29,687.52a23.59,23.59,0,0,0-10.11,3A23.88,23.88,0,0,0,598.1,713Z"/><path class="cls-7" d="M604.17,727.33l2.35,2.29"/><path class="cls-8" d="M671.35,768.52l.18,2.68c.08,1.14.22,2.26.4,3.37,2.94,17.4,18.94,30.06,37.24,28.79L990.69,783.8l-5-72.28L704.55,731.05C684.87,732.42,670,749.2,671.35,768.52Z"/><path class="cls-18" d="M598.1,713a23.8,23.8,0,0,0,8.42,16.6L676.72,798l1.39,1.35,2.21,2.15a34.53,34.53,0,0,0,25.48,8.73l290.26-20.17a1.19,1.19,0,0,0,1.11-1.27l-.3-4.25a1.19,1.19,0,0,0-1.27-1.11l-286.43,19.9c-18.3,1.27-34.3-11.38-37.24-28.79-.18-1.11-.32-2.23-.4-3.36l-.18-2.68a35.26,35.26,0,0,1,26.4-36.35l-74.54-44.65a1.14,1.14,0,0,0-.7-.17l-2.22.16a23.59,23.59,0,0,0-10.11,3A23.88,23.88,0,0,0,598.1,713Z"/><path class="cls-10" d="M986.72,726.74l-287.84,20"/><path class="cls-10" d="M987.68,740.56l-287.84,20"/><path class="cls-10" d="M988.64,754.35l-287.84,20"/><path class="cls-10" d="M989.63,768.58l-287.84,20"/><path class="cls-11" d="M981.8,718.12l0,.45.26,0C982,718.41,981.89,718.27,981.8,718.12Z"/><path class="cls-19" d="M973.16,623.75a21,21,0,0,1-6.52,15l-58,63.58-1.15,1.25-1.82,2a30.34,30.34,0,0,1-21.88,9l-255.32-2.66a1.15,1.15,0,0,1-1.14-1.16l0-3.54a1.15,1.15,0,0,1,1.16-1.13l252,2.62a30.81,30.81,0,0,0,31.15-27.16c.09-1,.15-2,.16-3l0-2.35c.18-17-13.72-31-31-31.13l-251.6-2.62a1.14,1.14,0,0,1-1.13-1.16l0-3.76a1.14,1.14,0,0,1,.77-1.08l104.65-36.1a1.07,1.07,0,0,1,.39-.07l218.47,2.28a21,21,0,0,1,20.76,21.2Z"/><path class="cls-7" d="M968.58,636.6l-1.94,2.14"/><path class="cls-8" d="M911.84,676.18l0,2.36c0,1-.07,2-.16,3a30.81,30.81,0,0,1-31.15,27.16l-247.73-2.58.66-63.6,247.38,2.57C898.12,645.24,912,659.18,911.84,676.18Z"/><path class="cls-20" d="M973.16,623.75a21,21,0,0,1-6.52,15l-58,63.58-1.15,1.25-1.82,2a30.34,30.34,0,0,1-21.88,9l-254.88-2.65a1.59,1.59,0,0,1-1.57-1.61l0-2.65a1.6,1.6,0,0,1,1.61-1.58l251.51,2.62a30.81,30.81,0,0,0,31.15-27.16c.09-1,.15-2,.16-3l0-2.35a31,31,0,0,0-25-30.5l62.88-42.88a1.55,1.55,0,0,1,.91-.28l1.79,0a20.95,20.95,0,0,1,20.76,21.2Z"/><path class="cls-14" d="M633.29,655.88l253.3,2.63"/><path class="cls-14" d="M633.17,668l253.29,2.63"/><path class="cls-14" d="M633,680.18l253.29,2.63"/><path class="cls-14" d="M632.91,692.7l253.29,2.64"/><path class="cls-11" d="M637.16,648.07v.4h-.23C637,648.33,637.09,648.2,637.16,648.07Z"/><path class="cls-21" d="M840.32,816.39A55.55,55.55,0,0,0,830.8,838c-4.32,21.46,5.86,38.61,8.69,43q-.42-6-.83-12l10.76,9.53a62.19,62.19,0,0,1-5.79-38.09,60.54,60.54,0,0,1,9.93-24.05H840.32"/><path class="cls-22" d="M683.45,488.74c-.07,3.19,14.82,6.9,27.74,7.51a87.72,87.72,0,0,0,32.13-4.61,76.46,76.46,0,0,0,2.73-8c.93-3.3,1.12-4.78,2-7.72a57.09,57.09,0,0,1,3.17-8.14,247.85,247.85,0,0,1-40.05,13.41C694.45,485.25,683.5,486,683.45,488.74Z"/><path class="cls-23" d="M756.86,568.05A273,273,0,0,0,771,601.43l1,2,1.08,2,2.14,4c1.55,2.56,3,5.17,4.66,7.65s3.3,5,5,7.42,3.52,4.78,5.39,7.09a144.49,144.49,0,0,0,25.19,24.73c2.34,1.8,4.74,3.55,7.19,5.31s5,3.55,7.49,5.56a40.24,40.24,0,0,1,7.24,7.18,28.4,28.4,0,0,1,4.74,9.61,34.28,34.28,0,0,1,1.27,10.42,36.75,36.75,0,0,1-1.86,10.15,73.32,73.32,0,0,1-8.81,17.2c-3.42,5.19-7,10.08-10.19,15a75.57,75.57,0,0,0-8,15.29,44.35,44.35,0,0,0-2,8.12,37.4,37.4,0,0,0-.15,8.33,40.2,40.2,0,0,0,1.74,8.27,48.43,48.43,0,0,0,3.54,7.86,68.47,68.47,0,0,0,10.73,14.07c2.1,2.13,4.26,4.23,6.57,6.19s4.63,3.9,7,5.8c-2.67-1.46-5.3-3-7.86-4.69s-5-3.51-7.45-5.41a71.29,71.29,0,0,1-6.84-6.3,59.33,59.33,0,0,1-6-7.26,51.19,51.19,0,0,1-4.65-8.37,45.73,45.73,0,0,1-2.78-9.32,39.91,39.91,0,0,1-.53-9.83,47.61,47.61,0,0,1,1.75-9.67,67.66,67.66,0,0,1,3.47-9c1.35-2.9,2.91-5.64,4.48-8.33,3.15-5.38,6.64-10.4,9.73-15.45s5.93-10.08,7.51-15.25a28.25,28.25,0,0,0,1.37-7.71,25.51,25.51,0,0,0-1-7.57,19.26,19.26,0,0,0-3.2-6.65,33.69,33.69,0,0,0-5.64-5.62c-4.41-3.62-9.58-7.12-14.37-11.08a139.91,139.91,0,0,1-35.32-43.05c-1.51-2.7-2.79-5.52-4.15-8.28l-1.88-4.22c-.63-1.41-1.25-2.81-1.77-4.26A185.39,185.39,0,0,1,756.86,568.05Z"/><path class="cls-24" d="M740.46,620.65c12.37,9.87,55.55,1.83,67.85-24.84,10.77-23.39-5.72-53.65-8.48-59-11.25-21.89-24.27-30.39-22.5-47.84a35.62,35.62,0,0,1,3.19-11.4c-.54.53-1.36,1.35-2.32,2.38-9.72,10.29-13.06,18.83-14.92,18.22-.58-.2-1.14-1.32-.79-5.83a205.81,205.81,0,0,0-28.34-55.69,18.38,18.38,0,0,1,2.26,6.43,18.8,18.8,0,0,1-.67,8.3c-3.69,12.66-24.28,39.13-23.69,51,.26,5.15,1.82,6.94,2.12,15.58a99.38,99.38,0,0,1-.95,17.64A33.58,33.58,0,0,0,714.69,552a36.15,36.15,0,0,0,4.25,8.57c11.42,18.34,17.14,27.51,16.16,36.57-.59,5.47-3,7.68-1.73,13A21.12,21.12,0,0,0,740.46,620.65Z"/><path class="cls-25" d="M757.23,597.49c9.2-23.55-.92-45.06-2.93-49.12-.47-1.27-3.49-9-11.87-12.23-1.38-.53-7.14-2.54-12.88-.41-8.08,3-13.47,13.39-12,25.35q7.53,23.42,15,46.83a19,19,0,0,0,3.64,8.74l4.18,4A58.17,58.17,0,0,0,757.23,597.49Z"/><path class="cls-23" d="M725.34,615h22.47a.23.23,0,0,1,.23.23v.67a2.21,2.21,0,0,1-2.21,2.21H726.59a1.94,1.94,0,0,1-1.94-1.94v-.48A.69.69,0,0,1,725.34,615Z" transform="translate(744.56 1576.87) rotate(-130.43)"/><ellipse class="cls-26" cx="795.88" cy="405.35" rx="38.3" ry="30.9" transform="translate(-50.44 690.8) rotate(-45.63)"/><path class="cls-24" d="M709.84,426.8c5.29,10.79,24.92,23.16,31,28.11,10.35,8.45,20.05,26.22,16.31,67.35L794,526.58a121.8,121.8,0,0,1-9.18-81.43A119.06,119.06,0,0,1,793,406c-11.68-9.32-22.14-11.44-27.65-12-9.54-1-18.35,1-22.08,1.88-10.13,2.35-14.83,5.6-25.17,6.09a54.65,54.65,0,0,1-11.42-.66L705,403.55c0,2.1,0,4.21.05,6.31A49.76,49.76,0,0,0,709.84,426.8Z"/><rect class="cls-27" x="704.57" y="400.8" width="6.5" height="4.99" rx="2.49" transform="translate(1108.47 1112.63) rotate(-149.13)"/><circle class="cls-28" cx="753.69" cy="411.02" r="3.3"/><circle class="cls-29" cx="751.4" cy="411.48" r="0.56"/><path class="cls-29" d="M738,416.24a23,23,0,0,1,5.83,3.28,24.62,24.62,0,0,1,4.72,4.79,23.86,23.86,0,0,1,3.23,5.9,22.64,22.64,0,0,1,1.45,6.52c-.27-1.08-.54-2.15-.91-3.18a27.08,27.08,0,0,0-1.19-3.07,30.76,30.76,0,0,0-3.32-5.62,31.39,31.39,0,0,0-4.43-4.79A35.61,35.61,0,0,0,738,416.24Z"/><path class="cls-29" d="M736.73,417.08a13,13,0,0,1,3.55,3,14.12,14.12,0,0,1,2.38,4.05,13.48,13.48,0,0,1,.2,9.2,21.52,21.52,0,0,0,0-4.54,17.24,17.24,0,0,0-1.05-4.33A19.59,19.59,0,0,0,736.73,417.08Z"/><path class="cls-29" d="M735,417.72a11,11,0,0,1,2.71,3.76,11.42,11.42,0,0,1,1,4.62,12.14,12.14,0,0,1-3.62,8.42,19.08,19.08,0,0,0,2-4.08,14.72,14.72,0,0,0,.75-4.35A14.51,14.51,0,0,0,735,417.72Z"/><path class="cls-24" d="M800.94,386.08c1.35-.23,23.68-3.51,35,12.36a31.43,31.43,0,0,1,5.39,20.92C840.05,433.07,829.8,443.49,819,448c-17,7.09-32.49-1.79-34.22-2.83-.39-7.35-1-15.14-2-23.32-1-8.59-2.31-16.68-3.75-24.24A41.24,41.24,0,0,1,800.94,386.08Z"/><path class="cls-23" d="M786.06,407.53a30.25,30.25,0,0,1,1.61,24.84c13.36,6,26.72,2,31-6.26a17,17,0,0,0-2.17-18.06c-5.1-5.92-13.15-5.54-16.59-5.32A28.38,28.38,0,0,0,786.06,407.53Z"/><path class="cls-25" d="M754.4,471.4a55.31,55.31,0,0,0-1.68-7.29,21.67,21.67,0,0,0-1.89-4.78,23.56,23.56,0,0,0-7.43-8.08c-8.4-6.08-12.6-9.12-15.47-10.92a144.26,144.26,0,0,1-18.09-13.53,37.07,37.07,0,0,0,3.85,6c3.77,4.82,6.51,5.85,11.61,11.7,2.49,2.86,3.75,4.33,4.28,6.18,1.56,5.45-2,10.87-3.12,12.6-6.14,9.63-14.18,27.68-16.83,39.06-4.09,17.59,1,35.29,5.06,49.66,1.07,3.78,2.13,6.88,2.9,9l36.71-12.71a92.65,92.65,0,0,1-5.79-27.74C747.28,496,757.31,490.68,754.4,471.4Z"/><path class="cls-24" d="M675.54,499.94c-.43,3.74,18.32,9.81,34.86,12a122.85,122.85,0,0,0,41.77-1.73,87.79,87.79,0,0,0,4.35-9.1c1.55-3.78,1.94-5.49,3.39-8.85a65.5,65.5,0,0,1,4.94-9.22A340.64,340.64,0,0,1,712,494.24C690,497.09,675.9,496.77,675.54,499.94Z"/><path class="cls-30" d="M213.37,916.74c-5.91,2.76-49.15,22.17-90.84.49C88.05,899.31,71,861.66,70.06,830.36c-1.8-59.2,55.86-68.11,90.31-151.39,2.95-7.11,47.91-119.29-3.47-166.39-25-22.94-69.18-27.06-103.18-9.08C14.14,524.43-1.59,570,3.83,603.28c5.14,31.63,26.28,33.3,35.26,66.23,10.86,39.8-13.8,60.11-26.66,116.12C8.92,800.91-12.49,891.14,28.77,943.9c51.92,66.37,175.55,38.46,180.89,37.19"/><path class="cls-31" d="M174.18,538.11a136,136,0,0,0-44.37-2.35c-42.62,4.85-71,29-82,39.4,6.11-3.88,42.5-26.15,86.06-13.54a102.58,102.58,0,0,1,47.14,29.81,147.56,147.56,0,0,0-.69-28.3,111.93,111.93,0,0,0-2.49-13.43A105,105,0,0,0,174.18,538.11Z"/><path class="cls-31" d="M173,640a85.45,85.45,0,0,0-18.45-8.82c-28.31-9.53-54.12-1.41-64.93,2.77,5.36-1.3,35.54-8.13,60.14,10.35a62.76,62.76,0,0,1,16.48,18.64c1.43-4.32,2.84-8.81,4.18-13.48q1.4-4.82,2.58-9.46"/><path class="cls-31" d="M142.54,713.51c-2.81,4.43-5.95,9-9.42,13.74q-3.24,4.37-6.46,8.33a27.94,27.94,0,0,0-4.49-13.85C114.9,710.79,99.46,705.92,83,709a83.63,83.63,0,0,1,59.57,4.49Z"/><path class="cls-31" d="M87.83,779.58a42.17,42.17,0,0,0-12.52-7,44.39,44.39,0,0,0-28.1,0c1.86-.21,14-1.33,23.24,7.56a27.92,27.92,0,0,1,7.73,14c1.43-2.64,3.11-5.46,5.09-8.38C84.8,783.53,86.33,781.46,87.83,779.58Z"/><path class="cls-31" d="M70.06,830.36a31.68,31.68,0,0,0-38.16,6.07,30.27,30.27,0,0,1,22.85-2.87A30.11,30.11,0,0,1,72,846.72q-.3-3.19-.67-6.46Q70.72,835.21,70.06,830.36Z"/><path class="cls-31" d="M84.29,879.81a33.29,33.29,0,0,0-20.9,2c-14.14,6.39-18,20.73-18.5,22.7A40.59,40.59,0,0,1,94.4,894.39c-1.48-1.78-3-3.72-4.52-5.84A101.08,101.08,0,0,1,84.29,879.81Z"/><path class="cls-31" d="M122.53,917.23A29.09,29.09,0,0,0,107.46,929c-5.79,9.29-5.43,21.66.73,32a33.75,33.75,0,0,1,30.31-37.35c-1.85-.57-3.77-1.22-5.74-2A105.85,105.85,0,0,1,122.53,917.23Z"/><path class="cls-32" d="M431.37,769.73c-9.25,6.55-31.36,19.24-60.81,23.53a142,142,0,0,1-20.47,1.48A183.61,183.61,0,0,1,283,759.48c-87.42-72.88-70.66-203.32-68.68-217.11Q232.07,451.18,249.78,360a173.76,173.76,0,0,1,64.68,57.2,131,131,0,0,1,65.28,0,174.06,174.06,0,0,1,64.7-57.2Q463.16,454,481.89,548a417.16,417.16,0,0,1-2.53,106.36C472.24,700.42,465.47,745.59,431.37,769.73Z"/><path class="cls-31" d="M206.64,613.62a308.31,308.31,0,0,1-6.89,55.91,307.62,307.62,0,0,1-10.17,36.11c-10.25,29.38-22.2,49.13-27.81,60.08-15.12,29.49-18,85.27,41.85,201.24a28.87,28.87,0,0,0-20.7,30.21l260.87.41-7.67,0,77.13-.43A28.86,28.86,0,0,0,492.54,967c59.87-116,57-171.75,41.86-201.24-18.74-36.54-27.64-54.54-38-96.19a206.65,206.65,0,0,1-6.32-44.09c-.33-7.88.16-10.6-.19-10.68-1.23-.25-7.26,33.08-16.83,62.84-10.25,31.88-18.77,58.38-39.89,80-8.85,9-34.1,31.75-83.1,37.16a129.2,129.2,0,0,1-34.56-8.39C228.47,751.78,209.22,631.28,206.64,613.62Z"/><path class="cls-33" d="M285.29,961.76l-.12-.19"/><path class="cls-30" d="M342.83,960.65v36.93H256.41v0a36.92,36.92,0,0,1,28.76-36,36.14,36.14,0,0,1,8.19-.92Z"/><path class="cls-30" d="M443.79,997.54v0H357.37V960.65h49.46a33.64,33.64,0,0,1,5.23.39A36.91,36.91,0,0,1,443.79,997.54Z"/><path class="cls-30" d="M350.09,794.74l-7.26,183.37V960.65H293.36a36.14,36.14,0,0,0-8.19.92,217.88,217.88,0,0,1-32.3-132.7c-4.62,8.08-9.24,16.19-13.86,24.26-2.54-6.94-6.48-21-2.32-37.39a59.23,59.23,0,0,1,5.06-13.11c-3.19,2-6.39,3.89-9.58,5.83a71.22,71.22,0,0,1-.51-22.45v0a116.62,116.62,0,0,1,6.39-25.25c-3.12,4.36-6.22,8.73-9.34,13.09a122.39,122.39,0,0,1,2.59-48.21q-5,8.49-10,17a120.11,120.11,0,0,1,2.47-64.95l-13.14,19.91c-1.1-8.27-2.38-19.39-3.26-32.58-4.25-63.26,5-114.36,6-114.28.45,0-.59,10.07-.39,34.39.17,21.21,1.09,29.05,1.84,34.07a164.29,164.29,0,0,0,6.24,26.62l12.2-6.64a31.1,31.1,0,0,0-2.79,7.46A33.52,33.52,0,0,0,232.56,667l7.5-8.83a58.29,58.29,0,0,0,7.64,45.66l8-11.51a54.39,54.39,0,0,0,3.12,20.77,53.67,53.67,0,0,0,5.69,11.38l13-3.47a47,47,0,0,0,7,31.94l11.38-8.85a31.66,31.66,0,0,0,2.22,19.29,30.65,30.65,0,0,0,7.27,9.81l9.49-8.23a61.11,61.11,0,0,0,35.26,29.77A61.54,61.54,0,0,0,385.16,765l9.49,8.23a30.73,30.73,0,0,0,9.49-29.1L415.53,753a47.05,47.05,0,0,0,7-31.94l13,3.47a54,54,0,0,0,8.81-32.15l8,11.51a58.27,58.27,0,0,0,7.64-45.66l7.5,8.83a32.09,32.09,0,0,0-.74-27.92l12.2,6.64a315.59,315.59,0,0,0,3.5-51.54c-.6-41-9.35-83.36-9.22-83.38v0c.63,2.17,1.21,4.37,1.76,6.6a1.09,1.09,0,0,1,.05.17,467.17,467.17,0,0,1,15.41,120c0,8.95-.31,18-.92,27.36-.73,11.27-1.84,22.13-3.26,32.58L473.08,677.6a120.11,120.11,0,0,1,2.47,64.95q-5-8.49-10-17a122.39,122.39,0,0,1,2.59,48.21c-3.12-4.36-6.22-8.73-9.34-13.09A117.21,117.21,0,0,1,465.2,786v0a72.17,72.17,0,0,1-.49,22.45c-3.19-1.94-6.38-3.87-9.58-5.83a58.77,58.77,0,0,1,5,13.11c4.17,16.35.22,30.45-2.32,37.39-4.62-8.07-9.24-16.18-13.86-24.26A218.18,218.18,0,0,1,412.06,961a33.64,33.64,0,0,0-5.23-.39H357.37v17.46Q353.73,886.43,350.09,794.74Z"/><path class="cls-34" d="M478.89,645.73l-12.2-6.64a32.09,32.09,0,0,1,.74,27.92,33.27,33.27,0,0,0-6-13.45c-3.26-4.27-6.93-6.44-12-9.9S440,638.45,429,631.55c-27.63-17.37-51.23-55.46-58.49-84.22-1.28-5-3.82-16.79-13-21.55a20.59,20.59,0,0,0-18.33,0C330,530.49,327.36,542,326.18,546.6,319,574.22,296,613.77,267.57,631.55c-6.84,4.28-13.7,8.57-20.82,12.38-3.9,2.09-7,3.62-9.67,7-4.2,5.37-4.67,11.87-4.52,16a32.43,32.43,0,0,1,.74-27.92l-12.2,6.64a241.66,241.66,0,0,1-7-32.61c-4-28-2.22-50.82.21-70.77,4.55-37.2,16-101.55,35.46-182.33a173.54,173.54,0,0,1,64.68,57.2,130.74,130.74,0,0,1,65.28,0A174,174,0,0,1,444.46,360c24.56,85.84,35.3,153.67,37.44,187.91a578.25,578.25,0,0,1,.08,66.94C481.13,627.49,479.91,638.06,478.89,645.73Z"/><path class="cls-35" d="M365.23,600.62c-4,0-9.36-1-13.43-5.36a18.32,18.32,0,0,1-4.62-11.17V563.62h2.54V584a16,16,0,0,0,4,9.69c6,6.44,15.43,4.24,16.49,4a18.92,18.92,0,0,0,9.6-6.09l2,1.5a21.61,21.61,0,0,1-10.9,6.88A23.44,23.44,0,0,1,365.23,600.62Z"/><path class="cls-35" d="M331.43,600.62a23.33,23.33,0,0,1-5.65-.66,21.61,21.61,0,0,1-10.9-6.88l2-1.5a19,19,0,0,0,9.6,6.09c1.05.27,10.5,2.46,16.49-4a16,16,0,0,0,4-9.76V563.62h2.54V584a18.31,18.31,0,0,1-4.62,11.25C340.81,599.63,335.45,600.62,331.43,600.62Z"/><path class="cls-36" d="M361.65,555.5l-10.74,10.74a3.65,3.65,0,0,1-5.15,0L335,555.5a3.64,3.64,0,0,1,2.58-6.22h21.48A3.64,3.64,0,0,1,361.65,555.5Z"/><circle class="cls-29" cx="400.37" cy="514.66" r="27.51"/><circle class="cls-36" cx="400.37" cy="514.66" r="18.08"/><circle class="cls-29" cx="389.43" cy="503.94" r="4.31"/><circle class="cls-29" cx="293.12" cy="514.66" r="27.51"/><circle class="cls-36" cx="293.12" cy="514.66" r="18.08"/><circle class="cls-29" cx="282.18" cy="503.94" r="4.31"/><path class="cls-31" d="M242.76,465.1l16.38-69.23a65.26,65.26,0,0,1,33.86,29,127.78,127.78,0,0,0-11.43,5.92A135.52,135.52,0,0,0,242.76,465.1Z"/><path class="cls-31" d="M450.61,465.1q-8.19-34.62-16.37-69.23a65.34,65.34,0,0,0-33.87,29c3.71,1.69,7.54,3.65,11.44,5.92A135.47,135.47,0,0,1,450.61,465.1Z"/><path class="cls-31" d="M314.46,417.24a53.48,53.48,0,0,0-9.95,22.52c-3.38,18.42,4.25,32.91,6.75,37.24a99.88,99.88,0,0,1,21.57-63.12c-2.88.29-6,.72-9.25,1.32S317.26,416.5,314.46,417.24Z"/><path class="cls-31" d="M379.85,417.24a53.61,53.61,0,0,1,9.95,22.52c3.37,18.42-4.25,32.91-6.75,37.24a99.88,99.88,0,0,0-21.57-63.12c3.13.34,6.48.82,10,1.49C374.45,415.93,377.24,416.56,379.85,417.24Z"/><path class="cls-31" d="M357.68,413.53a268.58,268.58,0,0,1-11.2,74.1,208.74,208.74,0,0,1-10.1-74.09c2.79-.22,5.74-.37,8.85-.42,4.45-.06,8.62.11,12.45.41"/><path class="cls-37" d="M409.71,569.29a1.11,1.11,0,0,1-1.07-.8,1.13,1.13,0,0,1,.75-1.4L511,536.66a1.13,1.13,0,0,1,.64,2.16L410,569.25A1.12,1.12,0,0,1,409.71,569.29Z"/><path class="cls-37" d="M511.29,610.82a1.12,1.12,0,0,1-.32,0L409.39,580.35a1.13,1.13,0,0,1-.75-1.4,1.11,1.11,0,0,1,1.39-.75l101.58,30.43a1.12,1.12,0,0,1-.32,2.19Z"/><path class="cls-37" d="M517.29,575.27H409.71a1.12,1.12,0,0,1,0-2.24H517.29a1.12,1.12,0,0,1,0,2.24Z"/><path class="cls-37" d="M289.27,569.29a1.17,1.17,0,0,1-.32,0L187.37,538.82a1.13,1.13,0,0,1,.65-2.16l101.57,30.43a1.12,1.12,0,0,1-.32,2.2Z"/><path class="cls-37" d="M187.7,610.82a1.12,1.12,0,0,1-.33-2.19L289,578.2a1.12,1.12,0,1,1,.64,2.15L188,610.78A1.22,1.22,0,0,1,187.7,610.82Z"/><path class="cls-37" d="M289.27,575.27H181.7a1.12,1.12,0,1,1,0-2.24H289.27a1.12,1.12,0,0,1,0,2.24Z"/><path class="cls-30" d="M528.21,753.6a42.76,42.76,0,0,1-11.39,24.64c-11.49,12-26.16,12.87-29.27,13a47,47,0,0,0,52.24-11.72,145.49,145.49,0,0,0-5.39-13.77C532.38,761.26,530.28,757.22,528.21,753.6Z"/><path class="cls-30" d="M167.39,755.32A42.63,42.63,0,0,0,178.77,780c11.5,12,26.17,12.87,29.27,13a47,47,0,0,1-52.24-11.72,98.09,98.09,0,0,1,3.28-9.62A99.4,99.4,0,0,1,167.39,755.32Z"/><path class="cls-30" d="M543.46,815.21a54.14,54.14,0,0,1-14,4.88A57,57,0,0,1,499,817.65,69.12,69.12,0,0,0,541.1,837c.52-3.23,1-6.61,1.37-10.11.45-4,.77-7.93,1-11.64"/><path class="cls-30" d="M152.55,815.21a54.28,54.28,0,0,0,13.95,4.88A57,57,0,0,0,197,817.65,69.06,69.06,0,0,1,154.91,837c-.51-3.23-1-6.61-1.37-10.11-.45-4-.77-7.93-1-11.64"/><path class="cls-31" d="M128.21,973.31a3.49,3.49,0,0,1-.75-2.17h0a6.21,6.21,0,0,1,1.33-3.59h0a9.4,9.4,0,0,1,2.85-2.62h0a4.35,4.35,0,0,1,2.07-.67h0a2.69,2.69,0,0,1,.4,0h0a3.76,3.76,0,0,1,2.3,1.15h0l.28.33h0c.06-.7.14-1.56.21-2.45h0c.18-2.11.35-4.44.34-5.15h0V958h0a5.31,5.31,0,0,1-.2-1.17h0a1.34,1.34,0,0,1,.16-.71h0a.87.87,0,0,1,.75-.43h0a1.75,1.75,0,0,1,1.77,1.74h0a2,2,0,0,1-.09.59h0s0,0,0,.07h0c0,.06,0,.15,0,.27h0c0,.22-.07.52-.11.88h0c-.09.73-.18,1.7-.27,2.77h0c-.16,1.95-.31,4.21-.36,5.91h0a2.22,2.22,0,0,1,.58.26h0a1.09,1.09,0,0,1,.41.59h0a1.86,1.86,0,0,1,.08.5h0a1.08,1.08,0,0,1-.22.7h0a1.41,1.41,0,0,1-.5.38h0a6.34,6.34,0,0,1-.64.24h0a9,9,0,0,1,.12,1.17h0a3,3,0,0,1-.06.66h0a1.2,1.2,0,0,1-.33.64h0a.83.83,0,0,1-.57.22h-.11a1.85,1.85,0,0,1-.88-.31h0a1.35,1.35,0,0,1-.48-.63h0c0-.11-.06-.21-.08-.3h0c-.37.24-.87.54-1.44.85h0a10,10,0,0,1-4.2,1.37h0a2.8,2.8,0,0,1-2.29-1Zm3-5.07a5.45,5.45,0,0,0-1.4,3h0a.81.81,0,0,0,.19.56h0a.87.87,0,0,0,.69.24h0a5.91,5.91,0,0,0,2.43-.88h0c.86-.47,1.78-1.07,2.65-1.62h0c0-.18-.09-.42-.17-.69h0a5.26,5.26,0,0,0-.82-1.74h0a1.3,1.3,0,0,0-.76-.52h0l-.2,0h0a4.28,4.28,0,0,0-2.57,1.71Zm11.1,3.53a10.06,10.06,0,0,1-1.32-3.12h0a26.41,26.41,0,0,1-.74-5h0c0-.07,0-.13,0-.2h0a1.34,1.34,0,0,1,.25-.86h0a1,1,0,0,1,.75-.38h0l.2,0h0a1.32,1.32,0,0,1,1,.65h0a1.67,1.67,0,0,1,.2.76h0c0,.2,0,.41,0,.61h0a20.34,20.34,0,0,0,.36,3.93h0a5.14,5.14,0,0,0,.84,2.17h0c.22.24.36.3.52.3h0a.79.79,0,0,0,.33-.1h0a2.5,2.5,0,0,0,1.05-1.21h0a7.65,7.65,0,0,0,.57-2h0a18,18,0,0,0,.2-3.06h0v-.08h0a1.51,1.51,0,0,1,.17-.81h0a1.15,1.15,0,0,1,1-.54h.08a1.1,1.1,0,0,1,.73.29h0a1.55,1.55,0,0,1,.34.52h0a2.06,2.06,0,0,1,.15.63h0v.1c0,.29-.1,1.52-.31,2.93h0a12.87,12.87,0,0,1-1.3,4.26h0a3,3,0,0,1-2.09,1.63h0l-.42,0h0a3.1,3.1,0,0,1-2.57-1.52Zm9.89,2.2H152a1.36,1.36,0,0,1-1-.54h0a1.29,1.29,0,0,1-.21-.51h0l-.13,0h0a1.2,1.2,0,0,1-.72-.54h0v0l0,0a.8.8,0,0,1,0-.15h0s0,0,0-.07h0s0-.1,0-.16h0c0-.13,0-.3,0-.52h0c0-.43,0-1,0-1.68h0a43,43,0,0,1,.16-4.64h0a1.39,1.39,0,0,1-.37-.8h0a.28.28,0,0,1,0-.09h0a1.18,1.18,0,0,1,.34-.78h0a2.18,2.18,0,0,1,.4-.34h0c0-.06,0-.14.05-.23h0c.07-.3.15-.71.23-1.19h0a18.27,18.27,0,0,0,.32-3.14h0v-.15h0a3.3,3.3,0,0,0-.1-.43h0a3.31,3.31,0,0,1-.14-.77h0a1.12,1.12,0,0,1,.24-.74h0a1.19,1.19,0,0,1,.79-.4h.11a1,1,0,0,1,.67.27h0a1.93,1.93,0,0,1,.43.54h0a3.6,3.6,0,0,1,.41,1.61h0v.17h0a8.4,8.4,0,0,1-.22,2h0c-.11.54-.24,1.14-.39,2h0a9.66,9.66,0,0,1,2.75.38h0a4.54,4.54,0,0,1,2.93,2.29h0a2.11,2.11,0,0,1,.2.84h0a4.09,4.09,0,0,1-.66,2h0a13.56,13.56,0,0,1-1.46,2h0a36.78,36.78,0,0,1-3,2.89h0l-.31.29h0a2.39,2.39,0,0,0-.23.28h0a1.07,1.07,0,0,1-.34.37h0a.91.91,0,0,1-.44.12h0Zm-.13-5.78a27.36,27.36,0,0,0,.17,2.8h0l.81-.67h0a16.47,16.47,0,0,0,2.48-2.6h0a2.89,2.89,0,0,0,.65-1.5h0a.7.7,0,0,0-.07-.3h0a2,2,0,0,0-1.17-.74h0a7,7,0,0,0-2.12-.29h0l-.45,0h0c0,.16-.06.37-.1.61h0a18.49,18.49,0,0,0-.2,2.18h0c0,.17,0,.33,0,.49Zm8.67,6.32a1.56,1.56,0,0,1-.86-.29h0a.94.94,0,0,1-.37-.57h0a3.92,3.92,0,0,1-.13-.68h0c-.06-.51-.09-1.18-.1-2h0c0-3,.25-7.64.43-10.34h0c.08-1.37.13-2.54.19-3.45h0a10,10,0,0,1,.24-2h0a.93.93,0,0,1,.23-.4h0a1.2,1.2,0,0,1,.84-.37h0a1.51,1.51,0,0,1,1.08.53h0a1.2,1.2,0,0,1,.28.48h0a1.81,1.81,0,0,1,.08.58h0c0,.5-.08,1.18-.22,2.38h0c-.14,1.2-.34,2.91-.56,5.38h0c-.17,1.93-.25,3.9-.23,5.61h0c0,1.11.06,2.11.15,2.91h0c0,.11,0,.25,0,.4h0a3.84,3.84,0,0,1-.06.73h0a1.5,1.5,0,0,1-.36.77h0a.94.94,0,0,1-.65.27h0Zm3.83-1.68.23-.48-.23.48a3.57,3.57,0,0,1-1.45-1.5h0a5.31,5.31,0,0,1-.66-2.49h0a5.29,5.29,0,0,1,.39-2h0a11.6,11.6,0,0,1,2-3.5h0A3.66,3.66,0,0,1,167.1,962h.21a3.61,3.61,0,0,1,2.19.82h0a4.73,4.73,0,0,1,1.67,3h0a5.92,5.92,0,0,1,.09,1h0a6.14,6.14,0,0,1-2,4.51h0a5.79,5.79,0,0,1-3.69,1.71h0a2.3,2.3,0,0,1-1.07-.21Zm3-8.37a.68.68,0,0,0-.17.07h0a2.63,2.63,0,0,0-.67.43h0a6.6,6.6,0,0,0-1.81,3.13h0a2.05,2.05,0,0,0-.09.7h0a3.08,3.08,0,0,0,.27,1.25h0a1.15,1.15,0,0,0,.61.65h0a.62.62,0,0,0,.2,0h0a2.67,2.67,0,0,0,1.44-.69h0a3.92,3.92,0,0,0,1.09-1.27h0a5,5,0,0,0,.58-2.18h0a2.81,2.81,0,0,0-.31-1.29h0a1.76,1.76,0,0,0-.42-.65h0a1.4,1.4,0,0,0-.44-.2h0l-.25.05h0Zm-.14-.12,0-.4,0,.4Zm-48.46,3.91a8.91,8.91,0,0,1,1.56-1.85,10.27,10.27,0,0,1,4.27-2l.75.06a3.27,3.27,0,0,1,1.69.78,1.91,1.91,0,0,1,.4,1.92,3.29,3.29,0,0,1-1.59,2.12,7.53,7.53,0,0,1-2.85,1c-1,.16-1.6.34-1.7.56s0,.49.39.81a6.41,6.41,0,0,0,2.63.87,11.55,11.55,0,0,0,3.45.2,12.34,12.34,0,0,0,2.25-.45c.58-.2,1.22.42,1.54.37s.56.15.7.59c-.66.73-1.53.51-2.25.81a12.52,12.52,0,0,1-2.64.7,15.18,15.18,0,0,1-3.76.09l-.87-.11a11,11,0,0,1-3.12-1.05,3.9,3.9,0,0,1-1.16-1.12,3.76,3.76,0,0,1-.44-1.75A6.73,6.73,0,0,1,118.93,968.25Zm2.38.77a8.51,8.51,0,0,0,2.8-.9c.49-.34.73-.67.7-1s-.39-.37-1.1-.1a3.77,3.77,0,0,0-1.52.88A11.12,11.12,0,0,0,121.31,969Z"/><path class="cls-31" d="M166.89,981.79a10.66,10.66,0,0,1-5.41-2.57h0a.92.92,0,0,1-.3-.62h0c0-.05,0-.1,0-.15h0a1.25,1.25,0,0,1,.36-.68h0a1.23,1.23,0,0,1,.7-.35h0l.14,0h0a1,1,0,0,1,.69.28h0a6.69,6.69,0,0,0,1.5,1h0a11.53,11.53,0,0,0,1.73.69h0a12,12,0,0,0,2.71.49h0c.3,0,.6,0,.9,0h0a10.15,10.15,0,0,0,1.83-.2h0a10.58,10.58,0,0,0,2.33-.74h0a5.28,5.28,0,0,0,2.37-2.69h0a14.3,14.3,0,0,0,.68-4.45h0c-.15.21-.31.41-.48.61h0a5.64,5.64,0,0,1-1,.89h0a4,4,0,0,1-1.52.63h0l-.27,0h0a1.44,1.44,0,0,1-.71-.15h0a2.49,2.49,0,0,1-.76-.52h0a3.68,3.68,0,0,1-1-2.41h0a2.26,2.26,0,0,1,0-.26h0a6.19,6.19,0,0,1,.48-2.51h0a15.54,15.54,0,0,1,1.3-2.54h0c.12-.2.35-.51.69-.95h0a9.89,9.89,0,0,1,1.22-1.32h0a7.31,7.31,0,0,1,1.53-1.08h0a2.47,2.47,0,0,1,1.09-.29h0a2.05,2.05,0,0,1,.6.07h0a1,1,0,0,1,.33.16h0a.38.38,0,0,1,.15.29h0a.16.16,0,0,1,0,.07h0a1,1,0,0,1-.27.52h.08l.37,0h0c.63.09,1,.46,1,1h0v.09h0c-.08,1.5-.15,3-.23,4.48h0c-.08,1.5-.23,3-.39,4.47h0a16.91,16.91,0,0,1-.75,3.76h0a7,7,0,0,1-.76,1.59h0a6.68,6.68,0,0,1-2.07,2h0a10.49,10.49,0,0,1-2.74,1.19h0a13.24,13.24,0,0,1-3.09.44h0a14.74,14.74,0,0,1-3.06-.27Zm10.37-17.7a4.92,4.92,0,0,0-.48.52h0l-.51.63h0a7.58,7.58,0,0,0-.83,1.26h0c-.22.43-.43.87-.64,1.32h0a6.57,6.57,0,0,0-.82,2.79h0v0h0a3.22,3.22,0,0,0,.1.78h0c.06.16.12.22.16.24h0l0,0h0a1.21,1.21,0,0,0,.13-.12h0a4.16,4.16,0,0,0,.42-.52h0A14.13,14.13,0,0,0,176,968.7h0a18.9,18.9,0,0,0,.85-2.43h0c.22-.81.45-1.62.68-2.43h0l-.28.25Z"/><path class="cls-31" d="M182.36,973.63a5.49,5.49,0,0,1-1.81-1.64h0a.88.88,0,0,1-.16-.47h0a1,1,0,0,1,.06-.33h0a1.6,1.6,0,0,1,.47-.65h0a1.41,1.41,0,0,1,.72-.31h.09a.78.78,0,0,1,.64.34h0a4,4,0,0,0,1.09,1h0a.82.82,0,0,0,.45.15h0a.7.7,0,0,0,.52-.28h0s0,0,0,0h0l.05-.12h0a1.22,1.22,0,0,0,.07-.53h0v0h0a2.22,2.22,0,0,0-.19-.82h0a2.87,2.87,0,0,0-.8-1h0a7.4,7.4,0,0,0-.7-.51h0a3.08,3.08,0,0,1-.69-.61h0a2.64,2.64,0,0,1-.62-1.63h0a3.23,3.23,0,0,1,0-.53h0a3.42,3.42,0,0,1,1.33-2.26h0a6,6,0,0,1,2.32-1.16h0l.19,0h0a.72.72,0,0,1,.53.23h0a.79.79,0,0,1,.22.54h0a1,1,0,0,1,0,.17h0a1.39,1.39,0,0,1-.87,1.06h0a4.81,4.81,0,0,0-.65.4h0a2.9,2.9,0,0,0-.61.6h0a1.23,1.23,0,0,0-.27.65h0v0h0a.69.69,0,0,0,.32.52h0a6.28,6.28,0,0,0,.77.59h0a4.24,4.24,0,0,1,.77.7h0a8.47,8.47,0,0,1,.79,1.11h0a3.3,3.3,0,0,1,.45,1.31h0c0,.15,0,.3,0,.45h0a4,4,0,0,1-.39,1.8h0a2.8,2.8,0,0,1-1.73,1.49h0a2.81,2.81,0,0,1-1,.18h0a2.77,2.77,0,0,1-1.47-.39Zm2.23-2.18v0Zm-.07-.05,0,0,0,0Z"/><path class="cls-31" d="M179.9,958.22c.17-.25.35-.5.73-.46a.57.57,0,0,1,.51.6,1.07,1.07,0,0,1-.21.52l-1,1.49c-.17.26-.35.5-.72.46a.55.55,0,0,1-.52-.6,1.34,1.34,0,0,1,.21-.51Z"/><path class="cls-31" d="M176.48,958a.76.76,0,0,1,.3-.81.57.57,0,0,1,.77.17,1.14,1.14,0,0,1,.14.54l.14,1.77a.75.75,0,0,1-.3.8.55.55,0,0,1-.77-.16,1.17,1.17,0,0,1-.14-.54Z"/><path class="cls-31" d="M173.65,959a.75.75,0,0,1,0-.86.57.57,0,0,1,.78-.15,1.19,1.19,0,0,1,.34.44l.81,1.58a.75.75,0,0,1,0,.86.57.57,0,0,1-.78.15,1.29,1.29,0,0,1-.34-.44Z"/><path class="cls-31" d="M173.61,961.29c.27.15.51.33.49.7a.56.56,0,0,1-.57.55,1.11,1.11,0,0,1-.52-.19l-1.53-.89a.76.76,0,0,1-.5-.7.57.57,0,0,1,.58-.55,1.15,1.15,0,0,1,.52.19Z"/><path class="cls-31" d="M182.27,960.13a.73.73,0,0,1,.84-.13.56.56,0,0,1,.23.76,1.09,1.09,0,0,1-.39.38l-1.48,1c-.26.17-.52.32-.84.13a.55.55,0,0,1-.24-.75,1.15,1.15,0,0,1,.4-.39Z"/><path class="cls-38" d="M793.06,591a19.83,19.83,0,0,0-4.42.79,5,5,0,0,1-3.68-.26c-.54-.33-1.36-1.1-1.24-1.83s1.16-1.2,3.26-2.17c.45-.22.6-.27.84-.38,1.11-.51,3.91-1.79,4.5-4.21a4.27,4.27,0,0,0-1.19-4.12,4.07,4.07,0,0,0-2.66-.89,5.8,5.8,0,0,0-2.61.69,12,12,0,0,0-4.25,3,9.57,9.57,0,0,0-2.28,3.82,8.54,8.54,0,0,0-.22,3.91,7,7,0,0,0,3.89,5.24,9.28,9.28,0,0,0,3.36,1,10.32,10.32,0,0,0,5.92-1.27c1.76-.85,2-1.42,2-1.72a1.64,1.64,0,0,0-.72-1.46A1.13,1.13,0,0,0,793.06,591Zm-10.18-4.8c-.47-.55.94-2.92,2.94-3.93.63-.32,1.85-.81,2.21-.39s-.5,1.82-.57,1.92a5,5,0,0,1-1.57,1.41C785.26,585.61,783.29,586.7,782.88,586.21Z"/><rect class="cls-38" x="784.05" y="568.54" width="2.47" height="7.17" rx="1.21" transform="translate(-87.62 145.47) rotate(-10.03)"/><rect class="cls-38" x="789.7" y="568.74" width="2.47" height="7.17" rx="1.21" transform="translate(243.06 -235.74) rotate(19.97)"/><rect class="cls-38" x="779.1" y="570.61" width="2.47" height="7.17" rx="1.21" transform="matrix(-0.77, 0.64, -0.64, -0.77, 1747.16, 512.01)"/><rect class="cls-38" x="775.99" y="574.91" width="2.47" height="7.17" rx="1.21" transform="translate(1604.94 74.9) rotate(112.02)"/><rect class="cls-38" x="794.09" y="571.71" width="2.47" height="7.17" rx="1.21" transform="translate(689.37 -400.55) rotate(47.92)"/></svg>